<mxfile host="Electron" modified="2024-05-31T05:16:35.121Z" agent="Mozilla/5.0 (Windows NT 10.0; Win64; x64) AppleWebKit/537.36 (KHTML, like Gecko) draw.io/22.0.3 Chrome/114.0.5735.289 Electron/25.8.4 Safari/537.36" etag="lAt3-fMl4vREBGb9HDNb" version="22.0.3" type="device">
  <diagram id="C5RBs43oDa-KdzZeNtuy" name="Page-1">
    <mxGraphModel dx="567" dy="504" grid="1" gridSize="10" guides="1" tooltips="1" connect="1" arrows="1" fold="1" page="1" pageScale="1" pageWidth="827" pageHeight="1169" math="0" shadow="0">
      <root>
        <mxCell id="WIyWlLk6GJQsqaUBKTNV-0" />
        <mxCell id="WIyWlLk6GJQsqaUBKTNV-1" parent="WIyWlLk6GJQsqaUBKTNV-0" />
        <mxCell id="nDkjyHfl0j68gdk95McF-3" value="" style="edgeStyle=orthogonalEdgeStyle;rounded=0;orthogonalLoop=1;jettySize=auto;html=1;" parent="WIyWlLk6GJQsqaUBKTNV-1" source="nDkjyHfl0j68gdk95McF-0" target="nDkjyHfl0j68gdk95McF-2" edge="1">
          <mxGeometry relative="1" as="geometry" />
        </mxCell>
        <mxCell id="nDkjyHfl0j68gdk95McF-0" value="начало" style="ellipse;whiteSpace=wrap;html=1;fillColor=#f5f5f5;fontColor=#333333;strokeColor=#666666;" parent="WIyWlLk6GJQsqaUBKTNV-1" vertex="1">
          <mxGeometry x="200" y="160" width="120" height="40" as="geometry" />
        </mxCell>
        <mxCell id="nDkjyHfl0j68gdk95McF-1" value="&lt;h1&gt;&lt;span style=&quot;background-color: initial;&quot;&gt;Проба коллекции&lt;/span&gt;&lt;br&gt;&lt;/h1&gt;&lt;div&gt;&lt;span style=&quot;background-color: initial;&quot;&gt;Получение численной величины, характеризующей, насколько коллекция успешно сгенерирована&lt;/span&gt;&lt;/div&gt;" style="text;html=1;strokeColor=none;fillColor=none;spacing=5;spacingTop=-20;whiteSpace=wrap;overflow=hidden;rounded=0;" parent="WIyWlLk6GJQsqaUBKTNV-1" vertex="1">
          <mxGeometry x="40" y="40" width="520" height="80" as="geometry" />
        </mxCell>
        <mxCell id="nDkjyHfl0j68gdk95McF-5" value="" style="edgeStyle=orthogonalEdgeStyle;rounded=0;orthogonalLoop=1;jettySize=auto;html=1;" parent="WIyWlLk6GJQsqaUBKTNV-1" source="nDkjyHfl0j68gdk95McF-2" target="nDkjyHfl0j68gdk95McF-4" edge="1">
          <mxGeometry relative="1" as="geometry" />
        </mxCell>
        <mxCell id="nDkjyHfl0j68gdk95McF-2" value="список полярных координат с цветами тегов" style="shape=parallelogram;perimeter=parallelogramPerimeter;whiteSpace=wrap;html=1;fixedSize=1;fillColor=#dae8fc;strokeColor=#6c8ebf;" parent="WIyWlLk6GJQsqaUBKTNV-1" vertex="1">
          <mxGeometry x="80" y="240" width="360" height="40" as="geometry" />
        </mxCell>
        <mxCell id="nDkjyHfl0j68gdk95McF-7" value="" style="edgeStyle=orthogonalEdgeStyle;rounded=0;orthogonalLoop=1;jettySize=auto;html=1;" parent="WIyWlLk6GJQsqaUBKTNV-1" source="nDkjyHfl0j68gdk95McF-4" target="nDkjyHfl0j68gdk95McF-6" edge="1">
          <mxGeometry relative="1" as="geometry" />
        </mxCell>
        <mxCell id="nDkjyHfl0j68gdk95McF-4" value="группировка коллекции по тегам, если у точки несколько цветов, то добавить в каждую группировку" style="whiteSpace=wrap;html=1;fillColor=#d5e8d4;strokeColor=#82b366;" parent="WIyWlLk6GJQsqaUBKTNV-1" vertex="1">
          <mxGeometry x="80" y="320" width="360" height="40" as="geometry" />
        </mxCell>
        <mxCell id="piJ9wvMk9EYsJqWGtZYh-1" value="" style="edgeStyle=orthogonalEdgeStyle;rounded=0;orthogonalLoop=1;jettySize=auto;html=1;" edge="1" parent="WIyWlLk6GJQsqaUBKTNV-1" source="nDkjyHfl0j68gdk95McF-6" target="piJ9wvMk9EYsJqWGtZYh-0">
          <mxGeometry relative="1" as="geometry" />
        </mxCell>
        <mxCell id="nDkjyHfl0j68gdk95McF-6" value="для каждой группировки получитьь min и max углы" style="whiteSpace=wrap;html=1;fillColor=#d5e8d4;strokeColor=#82b366;" parent="WIyWlLk6GJQsqaUBKTNV-1" vertex="1">
          <mxGeometry x="80" y="400" width="360" height="40" as="geometry" />
        </mxCell>
        <mxCell id="nDkjyHfl0j68gdk95McF-15" value="конец" style="ellipse;whiteSpace=wrap;html=1;fillColor=#f5f5f5;fontColor=#333333;strokeColor=#666666;" parent="WIyWlLk6GJQsqaUBKTNV-1" vertex="1">
          <mxGeometry x="200" y="640" width="120" height="40" as="geometry" />
        </mxCell>
        <mxCell id="piJ9wvMk9EYsJqWGtZYh-3" value="" style="edgeStyle=orthogonalEdgeStyle;rounded=0;orthogonalLoop=1;jettySize=auto;html=1;" edge="1" parent="WIyWlLk6GJQsqaUBKTNV-1" source="piJ9wvMk9EYsJqWGtZYh-0" target="piJ9wvMk9EYsJqWGtZYh-2">
          <mxGeometry relative="1" as="geometry" />
        </mxCell>
        <mxCell id="piJ9wvMk9EYsJqWGtZYh-0" value="просуммировать &lt;b&gt;(max - min) &lt;/b&gt;всех группировок, в переменную &lt;b&gt;summ&lt;/b&gt;" style="rounded=0;whiteSpace=wrap;html=1;fillColor=#d5e8d4;strokeColor=#82b366;" vertex="1" parent="WIyWlLk6GJQsqaUBKTNV-1">
          <mxGeometry x="80" y="480" width="360" height="40" as="geometry" />
        </mxCell>
        <mxCell id="piJ9wvMk9EYsJqWGtZYh-4" value="" style="edgeStyle=orthogonalEdgeStyle;rounded=0;orthogonalLoop=1;jettySize=auto;html=1;" edge="1" parent="WIyWlLk6GJQsqaUBKTNV-1" source="piJ9wvMk9EYsJqWGtZYh-2" target="nDkjyHfl0j68gdk95McF-15">
          <mxGeometry relative="1" as="geometry" />
        </mxCell>
        <mxCell id="piJ9wvMk9EYsJqWGtZYh-2" value="вывод&amp;nbsp;&lt;b style=&quot;border-color: var(--border-color);&quot;&gt;summ&lt;/b&gt;" style="shape=parallelogram;perimeter=parallelogramPerimeter;whiteSpace=wrap;html=1;fixedSize=1;fillColor=#dae8fc;strokeColor=#6c8ebf;" vertex="1" parent="WIyWlLk6GJQsqaUBKTNV-1">
          <mxGeometry x="80" y="560" width="360" height="40" as="geometry" />
        </mxCell>
      </root>
    </mxGraphModel>
  </diagram>
</mxfile>
